:SAMPLES-PER-SECOND 30
:FRAME-RANGE 1-744
:FULLY-SPECIFIED
:DEGREES
628
root  -91.0969 39.4435 4.37805 168.947 39.975 177.991
RightUpLeg  -2.59902 5.51861 -2.88331
RightLeg  54.0564 -1.87305 -3.17234
RightFoot  -0.026782 -0.889952 8.96439
RightToes  5.82063e-011 0 -3.6325e-017
Spine  16.1507 3.82866 1.60529
Spine1  -1.33506 5.6364 -11.4682
HEad  -17.2756 -26.3413 3.51332
LeftShoulder1  3.2291 -4.31841 -35.2457
LeftArm  25.4693 8.57424 -20.0662
LeftForeArm  -1.34732 -8.34574 -16.9052
LeftHand  -1.20446 -4.75763 14.0193
RightShoulder  14.5766 13.7119 71.2523
RightArm  24.934 10.4076 1.03455
RightForeArm  8.91618 15.3753 9.32113
RightHand  1.38902 22.2835 5.25559
LeftUpLeg  2.38943 2.51054 -2.37649
LeftLeg  8.35731 -7.84563 0.891682
LeftFoot  -4.82261 -0.20283 4.07101
LeftToes  1.25507e-010 -3.78807e-010 5.71421e-011
629
root  -90.6371 39.5592 3.52857 169.053 40.3177 178.563
RightUpLeg  -4.86641 5.14986 -2.72313
RightLeg  50.0583 -2.7541 -3.87185
RightFoot  -3.21159 -0.650744 8.83124
RightToes  5.82063e-011 0 -3.6325e-017
Spine  16.6067 3.33055 1.38026
Spine1  -2.20052 4.91661 -10.5453
HEad  -17.7087 -25.6865 4.03923
LeftShoulder1  3.26695 -4.57452 -34.4215
LeftArm  23.807 3.54493 -18.379
LeftForeArm  -2.14142 -8.10533 -17.018
LeftHand  -1.2882 -4.82755 14.8658
RightShoulder  13.731 12.7426 71.1392
RightArm  24.6789 9.91611 0.874285
RightForeArm  9.06516 15.5588 9.14012
RightHand  1.32361 22.2536 4.99085
LeftUpLeg  5.08812 3.69216 -1.59803
LeftLeg  6.83861 -8.77717 0.405329
LeftFoot  -5.70715 -0.192756 4.61427
LeftToes  1.25507e-010 -3.78807e-010 5.71421e-011
630
root  -90.167 39.6984 2.69013 169.374 41.1703 179.323
RightUpLeg  -6.59413 4.50222 -2.50615
RightLeg  43.7493 -4.34244 -4.7354
RightFoot  -4.55968 -0.52345 8.29504
RightToes  5.82063e-011 0 -3.6325e-017
Spine  16.0789 2.79682 1.77793
Spine1  -1.72023 4.4702 -9.92677
HEad  -19.1228 -25.3578 5.08029
LeftShoulder1  3.28239 -4.7576 -33.7216
LeftArm  21.7261 -1.61436 -16.7204
LeftForeArm  -3.04545 -7.5491 -17.2899
LeftHand  -1.25982 -4.1504 15.5353
RightShoulder  13.2151 12.1232 71.1659
RightArm  23.8914 9.54504 0.342369
RightForeArm  8.0956 15.3101 9.35261
RightHand  1.14254 21.9062 4.30291
LeftUpLeg  8.15051 4.83851 -0.593786
LeftLeg  4.38714 -9.02338 0.201627
LeftFoot  -6.05743 -0.208972 5.31658
LeftToes  1.25507e-010 -3.78807e-010 5.71421e-011
631
root  -89.6933 39.7735 1.86144 169.781 42.535 -179.917
RightUpLeg  -7.74141 4.17821 -2.05426
RightLeg  35.7542 -6.81138 -5.49174
RightFoot  -5.03063 -0.464569 7.79275
RightToes  5.82063e-011 0 -3.6325e-017
Spine  15.8767 2.57675 2.36199
Spine1  -1.64099 4.31608 -9.35061
HEad  -20.237 -25.2871 5.82386
LeftShoulder1  3.32381 -4.95365 -33.295
LeftArm  21.3168 -6.47207 -15.2381
LeftForeArm  -1.97109 -6.94049 -17.5948
LeftHand  -1.59314 -3.98245 19.8431
RightShoulder  12.508 11.4153 70.6673
RightArm  22.4402 8.99896 -0.0741317
RightForeArm  7.42142 14.2515 10.1317
RightHand  1.06439 21.7242 4.00588
LeftUpLeg  11.0792 5.62817 0.204619
LeftLeg  2.0943 -8.48023 0.34042
LeftFoot  -6.53956 -0.208097 5.89841
LeftToes  1.25507e-010 -3.78807e-010 5.71421e-011
632
root  -89.1918 39.7753 1.02853 170.296 44.2231 -179.197
RightUpLeg  -7.99617 4.66298 -1.43791
RightLeg  25.5426 -8.97377 -4.86012
RightFoot  -4.14697 -0.52841 7.94248
RightToes  5.82063e-011 0 -3.6325e-017
Spine  15.7565 2.4212 3.02523
Spine1  -1.74747 4.2469 -9.02083
HEad  -20.8741 -25.3083 6.22462
LeftShoulder1  3.32371 -5.11821 -32.5476
LeftArm  21.1392 -10.2793 -14.3163
LeftForeArm  -3.88713 -6.49579 -17.9571
LeftHand  -1.44317 -4.34338 17.388
RightShoulder  11.8205 10.7751 69.9416
RightArm  20.4758 8.31471 -0.408511
RightForeArm  7.2466 12.3568 11.379
RightHand  0.956832 21.4842 3.58861
LeftUpLeg  13.828 6.19851 0.765623
LeftLeg  0.0972773 -7.47313 0.616083
LeftFoot  -7.3507 -0.16551 6.01692
LeftToes  1.25507e-010 -3.78807e-010 5.71421e-011
